Coordinates
version=1
nRows=24
nColumns=24
inDegrees=yes

Units are S.I. units (second, meters, Newtons, ...)
Angles are in degrees.

endheader
time	pelvis_tilt	pelvis_list	pelvis_rotation	pelvis_tx	pelvis_ty	pelvis_tz	hip_flexion_r	hip_adduction_r	hip_rotation_r	knee_angle_r	ankle_angle_r	subtalar_angle_r	mtp_angle_r	hip_flexion_l	hip_adduction_l	hip_rotation_l	knee_angle_l	ankle_angle_l	subtalar_angle_l	mtp_angle_l	lumbar_extension	lumbar_bending	lumbar_rotation
      4.12500000	     12.65605664	      3.35742150	      8.92931405	     -0.52110739	      0.92136478	     -0.28524226	      6.59604626	     -3.21839513	     -0.95896214	     -2.22172025	     11.86078002	     -7.57711163	      0.00000000	    -26.48117752	      0.96454750	      6.68093025	    -13.74926704	     24.96499822	      8.02806271	      0.00000000	    -30.25698011	      0.31713664	    -15.05151885
      4.13000000	     12.72235821	      3.04469888	      9.04446637	     -0.51456398	      0.92082058	     -0.28478628	      6.54420298	     -2.85921836	     -1.06073667	     -2.35762878	     11.65857304	     -7.86424924	      0.00000000	    -26.62545346	      0.48078142	      6.45929015	    -14.41181645	     24.98777606	      8.45995852	      0.00000000	    -30.25916454	      0.70589809	    -14.99564137
      4.13500000	     12.79219217	      2.66932804	      9.16172017	     -0.50787649	      0.92033769	     -0.28435319	      6.49460761	     -2.42725882	     -1.22704522	     -2.58800865	     11.51651488	     -8.11226875	      0.00000000	    -26.77298280	     -0.05716413	      6.28979851	    -15.07103906	     24.93091047	      8.76641219	      0.00000000	    -30.23054950	      1.16071190	    -14.87110630
      4.14000000	     12.91308000	      2.24822167	      9.28501127	     -0.50119946	      0.91994594	     -0.28385218	      6.40847653	     -1.92919584	     -1.42370049	     -2.91681842	     11.38519829	     -8.33085896	      0.00000000	    -26.92931926	     -0.66208136	      6.03774710	    -15.80549515	     24.87941091	      9.19254730	      0.00000000	    -30.26010742	      1.66759866	    -14.74988333
      4.14500000	     13.11957687	      1.79347919	      9.38975272	     -0.49455137	      0.91966868	     -0.28324832	      6.25292473	     -1.36849984	     -1.64281168	     -3.33951318	     11.27310348	     -8.51242415	      0.00000000	    -27.14305969	     -1.31933996	      5.68174933	    -16.59325651	     24.80868744	      9.73143810	      0.00000000	    -30.39604238	      2.20791869	    -14.63782893
      4.15000000	     13.26495748	      1.28284463	      9.49416418	     -0.48774107	      0.91938150	     -0.28264236	      6.16872923	     -0.75226840	     -1.91269638	     -3.83943681	     11.20279744	     -8.66058762	      0.00000000	    -27.28361066	     -2.01358072	      5.35324436	    -17.39749906	     24.65550715	     10.15122369	      0.00000000	    -30.42090263	      2.78667147	    -14.45490449
      4.15500000	     13.41682662	      0.73831599	      9.59485648	     -0.48090899	      0.91913015	     -0.28198886	      6.08832894	     -0.09271208	     -2.18849128	     -4.40811641	     11.15298303	     -8.76956010	      0.00000000	    -27.39357849	     -2.74539262	      4.98177230	    -18.27070421	     24.46970675	     10.62178817	      0.00000000	    -30.44804083	      3.39866413	    -14.25566106
      4.16000000	     13.57158041	      0.16188112	      9.68906015	     -0.47403158	      0.91891296	     -0.28131365	      6.00851735	      0.60596381	     -2.46937316	     -5.02773913	     11.12052068	     -8.83957869	      0.00000000	    -27.47749223	     -3.50692655	      4.58692002	    -19.19860968	     24.23890340	     11.11619413	      0.00000000	    -30.46533605	      4.03640093	    -14.03713158
      4.16500000	     13.66469247	     -0.44815401	      9.77129824	     -0.46702211	      0.91867822	     -0.28064578	      5.99311944	      1.33200212	     -2.77306053	     -5.69268178	     11.13176156	     -8.86078889	      0.00000000	    -27.48773094	     -4.27394865	      4.23834588	    -20.14580995	     23.90964979	     11.47103627	      0.00000000	    -30.38443344	      4.69280212	    -13.75480841
      4.17000000	     13.81012122	     -1.06172216	      9.85509239	     -0.46009523	      0.91850760	     -0.27982904	      5.93903900	      2.08326816	     -3.11921087	     -6.41638605	     11.13131529	     -8.88273349	      0.00000000	    -27.49773796	     -5.08607617	      3.73310026	    -21.18587563	     23.58164116	     12.04418175	      0.00000000	    -30.38416324	      5.33934537	    -13.55513285
      4.17500000	     13.93604125	     -1.69697762	      9.92931647	     -0.45310073	      0.91835183	     -0.27903776	      5.89470233	      2.85389997	     -3.44008469	     -7.15181736	     11.15722278	     -8.86016961	      0.00000000	    -27.46687455	     -5.90024777	      3.28313859	    -22.26576530	     23.16439347	     12.52239259	      0.00000000	    -30.34832874	      6.00987535	    -13.30505163
      4.18000000	     14.04946506	     -2.33873456	     10.00189029	     -0.44608985	      0.91821127	     -0.27821810	      5.85550189	      3.63205686	     -3.75584921	     -7.89764073	     11.19483242	     -8.80650777	      0.00000000	    -27.38708528	     -6.72187848	      2.83294292	    -23.40829088	     22.68546031	     13.00036256	      0.00000000	    -30.29341395	      6.67845951	    -13.05943689
      4.18500000	     14.12249386	     -2.98829511	     10.06399488	     -0.43898278	      0.91806438	     -0.27740661	      5.84342462	      4.41236346	     -4.08232200	     -8.64433508	     11.28609738	     -8.71584193	      0.00000000	    -27.25190747	     -7.53260820	      2.41955629	    -24.57222136	     22.11241400	     13.36790492	      0.00000000	    -30.17284574	      7.34351161	    -12.77656058
      4.19000000	     14.20254195	     -3.62254827	     10.13185557	     -0.43196853	      0.91795040	     -0.27652501	      5.82196927	      5.18278415	     -4.40411732	     -9.39947352	     11.34677553	     -8.63100654	      0.00000000	    -27.06744868	     -8.35102990	      1.96516560	    -25.82299215	     21.49770684	     13.83344703	      0.00000000	    -30.08261450	      7.98937691	    -12.56999828
      4.19500000	     14.25257539	     -4.25946249	     10.18801279	     -0.42485449	      0.91783868	     -0.27568422	      5.80446889	      5.94974349	     -4.70651043	    -10.12709042	     11.47397490	     -8.50071956	      0.00000000	    -26.84053715	     -9.14556417	      1.58654833	    -27.08872803	     20.78599533	     14.12935091	      0.00000000	    -29.93712270	      8.63011697	    -12.29661991
      4.20000000	     14.29487167	     -4.87751980	     10.24288252	     -0.41781793	      0.91775443	     -0.27481481	      5.78190328	      6.69758985	     -4.99879593	    -10.83584489	     11.58689929	     -8.35722538	      0.00000000	    -26.55645386	     -9.92716206	      1.21017081	    -28.42141957	     20.01351296	     14.43104238	      0.00000000	    -29.79874312	      9.25382157	    -12.06383353
      4.20500000	     14.32317314	     -5.48133896	     10.30738507	     -0.41074004	      0.91768518	     -0.27392398	      5.74861732	      7.43310407	     -5.28761053	    -11.51190468	     11.73839978	     -8.23354472	      0.00000000	    -26.22612579	    -10.70565290	      0.85103793	    -29.78858932	     19.17071148	     14.72657892	      0.00000000	    -29.63552842	      9.85330018	    -11.87293430
      4.21000000	     14.33260721	     -6.06400182	     10.38517793	     -0.40368693	      0.91762640	     -0.27302777	      5.71845602	      8.14543829	     -5.57834557	    -12.16503986	     11.91418926	     -8.12710609	      0.00000000	    -25.83413579	    -11.47240491	      0.52393218	    -31.19543455	     18.26944862	     14.98844628	      0.00000000	    -29.45314909	     10.43724227	    -11.72414051
      4.21500000	     14.31803571	     -6.62168220	     10.47730620	     -0.39669661	      0.91758786	     -0.27214117	      5.68406929	      8.82859937	     -5.83576364	    -12.75941420	     12.07882030	     -7.99917520	      0.00000000	    -25.36017485	    -12.21509559	      0.26854796	    -32.66365759	     17.31283251	     15.19102300	      0.00000000	    -29.25037689	     10.99429024	    -11.60930092
      4.22000000	     14.29598824	     -7.15892549	     10.56119117	     -0.38970113	      0.91757304	     -0.27128001	      5.63124277	      9.48975322	     -6.07822696	    -13.31397879	     12.29508504	     -7.85291520	      0.00000000	    -24.85363919	    -12.92413911	      0.05467562	    -34.14196276	     16.29594928	     15.27410119	      0.00000000	    -29.03724535	     11.53090506	    -11.48377208
      4.22500000	     14.26384863	     -7.66779648	     10.65480748	     -0.38272400	      0.91757988	     -0.27043765	      5.55894116	     10.12185859	     -6.30971859	    -13.81452139	     12.54355241	     -7.71771821	      0.00000000	    -24.29722750	    -13.60422158	     -0.10871721	    -35.64488584	     15.24141404	     15.27684574	      0.00000000	    -28.81150138	     12.03694131	    -11.38072837
      4.23000000	     14.25329042	     -8.15501881	     10.72620671	     -0.37575556	      0.91766048	     -0.26963862	      5.43823365	     10.73662520	     -6.48791343	    -14.28089511	     12.81775253	     -7.57714714	      0.00000000	    -23.75587200	    -14.23444267	     -0.22146137	    -37.12178890	     14.12455925	     15.12956649	      0.00000000	    -28.61851367	     12.53269828	    -11.24677189
      4.23500000	     14.16612983	     -8.60836503	     10.88664230	     -0.36893284	      0.91767377	     -0.26883134	      5.38169293	     11.30229298	     -6.73696271	    -14.67996482	     13.07089788	     -7.44397673	      0.00000000	    -23.01278351	    -14.88490634	     -0.25510143	    -38.71327015	     13.05073442	     15.08000103	      0.00000000	    -28.33973480	     12.99914356	    -11.28193228
      4.24000000	     14.09080660	     -9.02671616	     11.01716795	     -0.36210188	      0.91774880	     -0.26807556	      5.27980424	     11.83496196	     -6.93360281	    -15.03575458	     13.37569166	     -7.30720752	      0.00000000	    -22.28074362	    -15.45934630	     -0.23392035	    -40.26552909	     11.93889805	     14.83079390	      0.00000000	    -28.07686753	     13.42858997	    -11.26982863
